<?xml version="1.0" encoding="UTF-8" standalone="no"?>
<svg
   xmlns:dc="http://purl.org/dc/elements/1.1/"
   xmlns:cc="http://creativecommons.org/ns#"
   xmlns:rdf="http://www.w3.org/1999/02/22-rdf-syntax-ns#"
   xmlns:svg="http://www.w3.org/2000/svg"
   xmlns="http://www.w3.org/2000/svg"
   xmlns:sodipodi="http://sodipodi.sourceforge.net/DTD/sodipodi-0.dtd"
   xmlns:inkscape="http://www.inkscape.org/namespaces/inkscape"
   version="1.0"
   width="1276pt"
   height="939pt"
   viewBox="0 0 1276 939"
   preserveAspectRatio="xMidYMid meet"
   id="svg3834"
   sodipodi:docname="floorplan.svg"
   inkscape:version="0.92.1 r15371">
  <defs
     id="defs3838" />
  <sodipodi:namedview
     pagecolor="#ffffff"
     bordercolor="#666666"
     borderopacity="1"
     objecttolerance="10"
     gridtolerance="10"
     guidetolerance="10"
     inkscape:pageopacity="0"
     inkscape:pageshadow="2"
     inkscape:window-width="1920"
     inkscape:window-height="1017"
     id="namedview3836"
     showgrid="false"
     inkscape:zoom="0.6372315"
     inkscape:cx="1312.4655"
     inkscape:cy="651.53887"
     inkscape:window-x="-8"
     inkscape:window-y="-8"
     inkscape:window-maximized="1"
     inkscape:current-layer="svg3834" />
  <metadata
     id="metadata3828">
Created by potrace 1.14, written by Peter Selinger 2001-2017
<rdf:RDF>
  <cc:Work
     rdf:about="">
    <dc:format>image/svg+xml</dc:format>
    <dc:type
       rdf:resource="http://purl.org/dc/dcmitype/StillImage" />
    <dc:title></dc:title>
  </cc:Work>
</rdf:RDF>
</metadata>
  <g
     transform="matrix(0.1,0,0,-0.1,0,939)"
     id="g3832"
     style="fill:#000000;stroke:none">
    <path
       d="m 1889.4663,7745.2303 c 0,-1258 -2,-1429 -15,-1437 -10,-7 -308,-9 -815,-8 l -799.99998,3 v -2380 -2380 l 2597.99998,3 2598,2 -2,-346 -1,-345.99996 589,-1 588,-2 -3,302.99996 c -2,167 -1,324 3,348 l 6,43 2218,1 h 2218.9997 l 6,-23 c 3,-12 5,-326 3,-696.99996 l -2,-675 h 672 673 v 38 c 0,30 -4,37 -19,37 -11,0 -21,9 -25,23 -8,29 -8,605 0,634 4,13 14,23 23,23 15,0 16,110.99996 16,1400.99996 v 1401 l -63,-7 c -34,-4 -80,-4 -102,0 l -40,7 v 2729 2730 l -5161.9997,2 -5163,2 z m 3540,1395 c 45,-13 44,-38 -2,-45 -49,-8 -3428,-9 -3470,-1 -39,7 -46,40 -10,47 44,8 3453,7 3482,-1 z m 2404,2 c 24,-5 31,-12 31,-30 0,-19 -7,-24 -45,-30 -25,-3 -91,-3 -148,0 -56,4 -115,5 -132,4 -26,-2 -545,-2 -1631,0 -331,0 -436,8 -432,30 2,9 14,19 28,23 31,9 2286,11 2329,3 z m 441,-3 c 15,-4 25,-14 25,-26 0,-29 -54,-38 -200,-31 -179,8 -175,7 -175,33 0,14 7,23 23,26 37,7 300,6 327,-2 z m 2889.9997,0 c 37,-10 33,-43 -7,-53 -33,-8 -2752.9997,-5 -2807.9997,4 -38,6 -42,39 -5,49 14,4 648,7 1410,7 761.9997,0 1395.9997,-3 1409.9997,-7 z m 257,-4 c 4,-5 9,-192 11,-417 l 3,-407 -32,-7 c -41,-8 -118,-8 -159,0 l -32,7 2,326 c 2,179 -1,333 -4,342 -4,10 -2,36 4,59 8,31 8,45 -1,56 -16,19 -5,41 23,47 36,8 175,3 185,-6 z m 750,0 c 4,-5 8,-1226 8,-2713 0,-2393 -2,-2706 -15,-2714 -18,-12 -685,-9 -697,3 -9,9 -17,5342 -8,5394 3,18 13,34 23,36 30,9 680,2 689,-6 z m -10029.9997,-80 c 4,-5 8,-155 8,-335 v -327 l -112,-3 -113,-3 v 335 335 l 23,4 c 35,8 184,3 194,-6 z m 2878,2 c 9,-9 8,41 6,-1034 l -2,-960 188,3 c 103,2 200,1 215,-3 l 27,-7 v -374 -373 l -32,-6 c -51,-9 -3224,-1 -3234,8 -9,9 -16,2674 -7,2719 3,15 13,29 22,31 27,7 2810,3 2817,-4 z m 430,0 c 9,-9 8,38 6,-1016 l -2,-942 -42,-6 c -55,-8 -333,-2 -343,8 -4,4 -9,32 -12,63 l -5,56 194,-4 194,-3 v 616 617 l -146,-6 c -80,-2 -167,-2 -193,2 l -48,7 3,262 c 2,145 0,268 -4,274 -13,21 4,72 27,76 32,7 363,3 371,-4 z m 2083,-6 c 9,-15 15,-515 7,-555 l -7,-31 -60,6 -60,5 6,-51 c 9,-78 4,-82 -116,-81 l -103,2 v -593 c 0,-326 -4,-597 -8,-602 -11,-11 -933,-11 -944,0 -4,5 -7,99 -6,209 l 2,200 -39,-4 c -37,-3 -39,-2 -45,30 -7,39 -6,1417 2,1449 3,12 12,24 21,26 10,3 315,4 680,3 489,-1 665,-4 670,-13 z m 300,11 c 25,-7 37,-41 28,-79 -6,-24 -9,-25 -94,-25 -135,0 -190,9 -198,32 -9,29 3,66 24,71 26,7 214,8 240,1 z m 434,-3 24,-9 3,-324 c 2,-287 1,-327 -14,-341 -14,-14 -54,-16 -323,-15 -169,1 -316,4 -327,8 -19,7 -20,18 -23,242 -2,129 0,252 4,273 l 7,37 174,-4 c 96,-3 176,-1 179,4 3,4 0,23 -7,42 -16,44 -5,83 24,89 43,8 256,7 279,-2 z m 2912.9997,-3 c 9,-9 8,115 6,-1425 l -1,-1343 h -1623.9997 -1624 l -7,123 c -9,148 -2,644 9,654 4,5 102,8 217,9 h 210 v 991 992 l 22,4 c 37,7 2784.9997,2 2791.9997,-5 z m -5048.9997,-32 c 3,-19 3,-48 -1,-65 l -7,-31 h -292 -293 l -6,43 c -3,24 -4,53 0,65 5,22 5,22 299,22 h 293 z m -628,-993 c -2,-447 -6,-813 -10,-813 -5,0 -8,381 -7,848 1,530 4,834 10,812 5,-20 8,-382 7,-847 z m 619,854 c 11,-11 11,-1313 0,-1324 -11,-11 -573,-11 -584,0 -9,9 -17,1268 -8,1304 3,12 13,24 23,26 30,9 560,2 569,-6 z m -720,-480 c 12,-12 15,-1118 3,-1137 -7,-12 -40,-16 -163,-18 -133,-3 -156,-1 -171,13 -15,15 -16,66 -14,576 3,484 5,561 18,570 18,11 315,8 327,-4 z m -3260,-60 c 10,-11 11,-1083 0,-1093 -11,-11 -139,-18 -182,-10 l -35,7 v 549 c 0,514 1,549 18,554 27,8 189,2 199,-7 z m 5717,-29 c 9,-37 7,-271 -4,-288 -8,-13 -54,-15 -310,-15 -256,0 -302,2 -311,15 -11,18 -8,265 4,277 8,7 84,9 182,6 110,-4 155,-1 155,11 0,9 35,13 139,15 137,2 138,2 145,-21 z m 436,8 c 0,-7 -3,-28 -6,-45 l -6,-31 h -173 c -148,0 -174,2 -179,16 -8,21 -8,59 1,67 3,4 87,7 185,7 144,0 178,-3 178,-14 z m -391,-571 c 2,-402 -1,-575 -9,-575 -7,0 -10,169 -9,562 1,498 3,588 14,588 1,0 3,-259 4,-575 z m 3517.9997,512 c 11,-11 11,-1003 0,-1014 -13,-12 -170,-15 -187,-4 -13,9 -15,77 -15,511 0,434 2,502 15,511 17,11 174,8 187,-4 z m -3141.9997,-63 c 14,-14 15,-70 13,-529 -2,-282 -7,-517 -11,-522 -11,-11 -333,-11 -344,0 -9,10 -17,975 -8,1024 3,18 13,34 23,36 9,3 83,5 164,6 122,1 149,-2 163,-15 z m -420,-256 c 9,-50 1,-785 -8,-795 -11,-11 -563,-11 -574,0 -9,10 -17,745 -8,795 l 6,32 h 289 289 z m -615,-389 c 0,-246 -4,-379 -10,-379 -6,0 -10,135 -10,386 0,254 3,383 10,379 6,-4 10,-143 10,-386 z m -1058,-37 c 9,-2 18,-12 21,-22 4,-15 -5,-18 -56,-24 -33,-3 -152,-6 -265,-6 -182,0 -203,2 -198,16 3,9 6,19 6,24 0,5 8,11 18,14 19,5 448,4 474,-2 z m -25,-85 c 11,-11 11,-273 0,-284 -10,-9 -536,-17 -584,-8 l -33,6 v 73 c 0,87 4,90 93,80 l 59,-7 -7,77 -7,77 235,-3 c 129,-2 239,-7 244,-11 z m -4038,-223 32,-7 -3,-442 c -2,-244 -6,-447 -10,-450 -11,-11 -141,-19 -182,-11 l -36,7 v 449 449 l 23,4 c 36,7 142,7 176,1 z m 9279.9997,0 32,-7 -3,-452 c -2,-250 -7,-457 -11,-462 -5,-4 -48,-8 -97,-8 -49,0 -92,4 -97,8 -4,5 -9,213 -11,462 l -3,454 23,4 c 37,7 133,7 167,1 z m -3551.9997,-147 c 11,-11 11,-1913 0,-1924 -5,-4 -243,-8 -530,-8 h -522 l 3,-711 3,-712 -28,-5 c -45,-9 -751,-3 -760,6 -4,5 -8,536 -8,1180 v 1172 l -139,-3 -138,-4 3,104 4,103 h -97 c -53,0 -100,4 -105,8 -9,9 -15,738 -7,774 3,12 15,24 27,26 45,7 2286,2 2294,-6 z m -5970,-800 c 4,-5 9,-1054 10,-2332 2,-2103 1,-2325 -13,-2340 -14,-14 -97,-15 -795,-13 -679.99998,3 -780.99998,5 -788.99998,18 -11,16 -14,4609 -4,4647 3,12 13,24 23,26 30,9 1558.99998,2 1567.99998,-6 z m 250,0 c 4,-5 9,-275 11,-601 l 3,-593 -32,-7 c -40,-8 -137,-8 -166,0 l -23,6 v 598 c 0,561 1,599 18,604 27,7 179,2 189,-7 z m 3288,3 c 4,-7 -533,-10 -1605,-10 -1072,0 -1609,3 -1605,10 4,7 550,10 1605,10 1055,0 1601,-3 1605,-10 z m 6001.9997,-13 c 4,-5 9,-132 11,-283 l 3,-274 h -112 -111 l 3,278 c 3,268 4,277 24,284 27,9 171,5 182,-5 z m -272,-7 c -9,-14 -3184.9997,-13 -3184.9997,1 0,5 609,9 1596,9 1089.9997,0 1592.9997,-3 1588.9997,-10 z m -5725.9997,-16 31,-7 v -2298 -2298 l -33,-6 c -17,-3 -753,-4 -1635,-3 -1412,3 -1604,5 -1612,18 -10,16 -14,4525 -4,4566 3,12 13,25 22,27 27,7 3196,8 3231,1 z m 268,-8 c 5,-4 8,-52 8,-107 v -99 h -81 c -94,0 -94,0 -94,105 0,75 7,103 29,109 24,7 129,1 138,-8 z m 2391,-12 c 20,-6 22,-12 22,-85 v -78 l -36,-7 c -36,-7 -120,-1 -130,9 -10,10 -16,86 -10,121 4,21 14,36 24,39 26,7 104,7 130,1 z m 3078.9997,0 23,-6 v -1249 -1248 l -43,-6 c -64,-9 -2983.9997,-1 -2993.9997,8 -4,5 -8,52 -8,105 v 97 l -102,-3 -101,-4 -7,44 c -9,65 -1,2045 8,2055 5,4 53,7 107,6 l 98,-2 -1,95 c -2,74 1,97 13,104 16,11 2968.9997,14 3006.9997,4 z m -5657.9997,-1449 c -1,-789 -6,-1432 -10,-1429 -13,8 -11,2864 1,2864 7,0 10,-482 9,-1435 z m 428,1212 c 10,-11 11,-2252 0,-2263 -11,-11 -111,-17 -163,-9 l -46,7 4,101 3,102 -96,-3 c -94,-4 -96,-3 -102,20 -9,33 -8,2021 1,2034 4,6 14,13 22,16 25,9 368,4 377,-5 z m 53,-1127 c 0,-716 -4,-1110 -10,-1110 -7,0 -10,394 -10,1110 0,714 3,1110 10,1110 6,0 9,-396 10,-1110 z m 5439.9997,800 c 12,-19 9,-985 -3,-997 -5,-4 -48,-8 -97,-8 -49,0 -92,4 -97,8 -4,5 -9,228 -11,497 -2,448 -1,489 14,505 23,23 179,19 194,-5 z m -3572.9997,-593 c 9,-10 17,-566 8,-614 l -6,-32 -483,-1 h -484 l -6,23 c -8,30 -8,486 0,526 7,31 8,32 46,26 l 40,-7 -7,40 c -6,37 -4,41 17,44 45,8 867,3 875,-5 z m 52,-652 c -1,-366 -5,-665 -10,-665 -9,0 -12,1246 -3,1298 4,17 8,32 11,32 2,0 3,-299 2,-665 z m -5764,583 c 9,-64 1,-2765 -8,-2774 -11,-11 -129,-18 -172,-10 l -35,7 v 1409 1410 h 104 105 z m 9263.9997,-374 32,-7 -3,-442 c -2,-244 -7,-447 -11,-452 -13,-12 -170,-15 -187,-4 -13,9 -15,73 -18,455 -2,419 -2,445 15,449 28,7 137,8 172,1 z m -3938.9997,-254 c 12,-19 12,-51 0,-70 -8,-13 -50,-16 -257,-18 -285,-4 -329,0 -338,29 -10,29 2,67 23,72 9,3 140,4 290,4 230,-2 274,-4 282,-17 z m 390,0 c 10,-16 14,-578 4,-626 l -6,-29 h -168 c -93,0 -172,4 -177,8 -4,5 -8,153 -9,329 -1,315 0,320 20,329 12,5 90,7 174,6 123,-2 155,-5 162,-17 z m -393,-123 c 11,-11 11,-513 0,-524 -11,-11 -563,-11 -574,0 -4,5 -8,123 -8,263 0,215 2,256 15,264 18,12 555,9 567,-3 z m -1781,-374 c 14,-15 16,-30 10,-102 -4,-49 -12,-89 -19,-93 -14,-10 -123,-5 -134,6 -10,10 -17,139 -9,170 7,28 21,33 88,35 32,1 52,-4 64,-16 z m 2402,11 c 20,-6 22,-12 22,-85 v -78 l -36,-7 c -37,-7 -121,-1 -131,10 -9,9 -16,102 -9,130 3,13 14,27 24,29 26,7 104,7 130,1 z m 310,-199 c 32,-5 42,-11 42,-24 0,-13 -10,-21 -31,-25 -40,-8 -537,-8 -566,0 -15,4 -23,14 -23,28 0,21 2,21 268,24 147,1 286,0 310,-3 z m 91,-387 c 1,-235 -2,-349 -10,-353 -6,-5 -8,-28 -4,-63 5,-43 4,-53 -5,-42 -11,16 -13,825 -2,845 15,25 20,-66 21,-387 z m 438,379 c 4,-5 9,-198 9,-429 l 1,-419 -24,-10 c -13,-5 -27,-9 -29,-9 -3,0 -4,30 -2,66 l 3,66 -190,2 -190,1 -3,335 c -1,184 0,349 3,367 3,18 13,34 23,36 29,9 390,2 399,-6 z m 260,7 30,-6 1,-331 c 1,-183 -1,-349 -4,-369 l -6,-38 h -118 c -114,0 -118,1 -124,23 -7,29 -8,665 0,694 3,12 13,24 23,26 25,7 165,8 198,1 z m 3182.9997,-1 35,-6 -29,-8 c -35,-10 -3055.9997,-12 -3105.9997,-2 -33,6 -34,7 -10,14 30,9 3058.9997,10 3109.9997,2 z m -6690.9997,-42 c 10,-6 16,-32 19,-74 6,-86 -9,-101 -91,-95 -68,5 -77,14 -77,78 0,60 9,88 29,93 30,8 106,7 120,-2 z m 1788,-4 c 4,-5 8,-98 8,-206 v -198 l 127,1 c 69,1 130,-3 135,-7 11,-11 11,-1573 0,-1584 -9,-9 -1954,-14 -1988,-6 -20,6 -20,12 -18,197 l 2,191 h -91 c -49,0 -94,4 -99,8 -9,10 -16,1322 -7,1375 l 5,34 97,-4 97,-3 -3,102 c -4,100 -4,101 20,105 46,8 1707,3 1715,-5 z m 270,0 c 11,-11 11,-353 0,-364 -11,-11 -213,-11 -224,0 -10,10 -17,287 -8,333 3,19 13,35 23,38 27,8 200,2 209,-7 z m 2000,-10 c 11,-11 11,-433 0,-444 -11,-11 -473,-11 -484,0 -10,10 -17,368 -8,414 3,18 13,34 23,36 29,9 460,2 469,-6 z m 2392.9997,3 c 13,-8 15,-44 15,-224 0,-118 -4,-218 -8,-223 -11,-11 -2342.9997,-11 -2353.9997,0 -10,10 -17,368 -8,414 3,18 13,34 23,36 35,10 2316.9997,7 2331.9997,-3 z m 257,-3 c 10,-11 11,-1982 0,-1993 -11,-11 -110,-17 -162,-10 l -45,7 v 999 c 0,937 2,999 18,1004 27,8 179,2 189,-7 z m -3959.9997,-30 c 11,-11 11,-763 0,-774 -11,-11 -593,-11 -604,0 -9,9 -16,692 -8,744 3,18 13,34 23,36 30,9 580,2 589,-6 z m -2917,-877 c 0,-347 -3,-530 -10,-530 -7,0 -10,183 -10,530 0,347 3,530 10,530 7,0 10,-183 10,-530 z m 6614.9997,424 25,-6 v -738 c 0,-638 -2,-741 -15,-753 -13,-13 -168,-15 -1194,-16 -649,-1 -1191.9997,1 -1205.9997,5 l -27,7 3,145 3,145 -366,1 c -202,0 -370,5 -375,9 -4,5 -8,220 -8,479 v 470 l 25,10 c 15,6 74,8 143,5 l 118,-6 -7,83 c -8,100 0,153 24,159 28,7 2829.9997,8 2856.9997,1 z m -3279.9997,-246 c 4,-3 9,-25 12,-47 l 6,-41 h -154 c -195,0 -199,1 -199,50 0,28 5,40 18,43 25,8 309,3 317,-5 z m 42,-161 c 11,-11 11,-1083 0,-1094 -5,-4 -245,-8 -533,-8 -446,0 -526,2 -534,14 -10,17 -13,945 -4,1033 5,41 11,58 23,61 30,9 1039,2 1048,-6 z m -6742,-844 c 0,-155 -4,-285 -8,-289 -11,-11 -129,-18 -172,-10 l -35,7 v 290 290 l 108,-3 107,-3 z m 3542,93 c 11,-10 10,-342 0,-353 -11,-10 -133,-11 -144,0 -10,10 -17,277 -8,323 3,19 13,35 23,38 24,7 120,1 129,-8 z m 3980,-89 c 4,-5 8,-72 8,-148 0,-113 -3,-142 -15,-149 -17,-12 -674,-9 -685,2 -10,10 -19,219 -11,261 4,21 14,38 24,40 30,9 670,2 679,-6 z m -5039,-304 c -445,-2 -1171,-2 -1615,0 -445,1 -81,2 807,2 888,0 1252,-1 808,-2 z m 7758.9997,-36 c 9,-10 17,-517 8,-563.99996 -6,-31 -6,-31 -79,-38 -41,-4 -88,-4 -105,0 l -31,7 v 297.99996 299 l 23,4 c 35,8 174,3 184,-6 z m -5821.9997,-30 c 9,-48 1,-573.99996 -8,-583.99996 -11,-11 -1003,-11 -1014,0 -9,10 -17,535.99996 -8,583.99996 l 6,32 h 509 509 z m 5579.9997,0 c 3,-18 4,-312 3,-654.99996 -3,-541 -5,-624 -18,-632 -19,-12 -955,-9 -967,3 -10,11 -17,1029.99996 -8,1193.99996 l 7,123 489,-1 h 488 z m -1015,-626.99996 c 0,-360 -3,-550 -10,-550 -11,0 -15,1081.99996 -3,1092.99996 3,4 8,7 10,7 2,0 3,-247 3,-549.99996 z m 1198,24 22,-6 v -338 -338 l -22,-6 c -29,-7 -97,-7 -125,0 l -23,6 v 338 c 0,314 1,339 18,343 26,7 104,7 130,1 z m -5797.9997,-24 c 0,-7 -167,-10 -480,-10 -313,0 -480,3 -480,10 0,7 167,10 480,10 313,0 480,-3 480,-10 z m 5809.9997,-701 c 14,-4 -239,-8 -562,-8 -406,-1 -588,2 -588,10 0,12 1109,11 1150,-2 z"
       id="path3830"
       inkscape:connector-curvature="0" />
    <rect
       style="fill:#e6e6e6;stroke-width:7.5"
       id="rect3840"
       width="3287.6909"
       height="4606.5757"
       x="2166.7754"
       y="-6235.8062"
       transform="scale(1,-1)" />
    <g
       id="camera.driveway"
       transform="matrix(0.92749993,0,0,-0.87490432,1179.3052,8707.1995)"
       style="fill:#7d7d7d;fill-opacity:1"
       inkscape:label="camera.driveway">
      <g
         id="g4149"
         style="fill:#7d7d7d;fill-opacity:1"
         transform="translate(3964.092,3283.0365)">
        <path
           id="path4151"
           d="m 488.3,142.5 v 203.1 c 0,15.7 -17,25.5 -30.6,17.7 l -84.6,-48.8 v 13.9 c 0,41.8 -33.9,75.7 -75.7,75.7 H 75.7 C 33.9,404.1 0,370.2 0,328.4 V 159.9 C 0,118.1 33.9,84.2 75.7,84.2 h 221.8 c 41.8,0 75.7,33.9 75.7,75.7 v 13.9 L 457.8,125 c 13.5,-8 30.5,1.9 30.5,17.5 z"
           inkscape:connector-curvature="0"
           style="fill:#7d7d7d;fill-opacity:1" />
      </g>
      <g
         id="g4153"
         style="fill:#7d7d7d;fill-opacity:1" />
      <g
         id="g4155"
         style="fill:#7d7d7d;fill-opacity:1" />
      <g
         id="g4157"
         style="fill:#7d7d7d;fill-opacity:1" />
      <g
         id="g4159"
         style="fill:#7d7d7d;fill-opacity:1" />
      <g
         id="g4161"
         style="fill:#7d7d7d;fill-opacity:1" />
      <g
         id="g4163"
         style="fill:#7d7d7d;fill-opacity:1" />
      <g
         id="g4165"
         style="fill:#7d7d7d;fill-opacity:1" />
      <g
         id="g4167"
         style="fill:#7d7d7d;fill-opacity:1" />
      <g
         id="g4169"
         style="fill:#7d7d7d;fill-opacity:1" />
      <g
         id="g4171"
         style="fill:#7d7d7d;fill-opacity:1" />
      <g
         id="g4173"
         style="fill:#7d7d7d;fill-opacity:1" />
      <g
         id="g4175"
         style="fill:#7d7d7d;fill-opacity:1" />
      <g
         id="g4177"
         style="fill:#7d7d7d;fill-opacity:1" />
      <g
         id="g4179"
         style="fill:#7d7d7d;fill-opacity:1" />
      <g
         id="g4181"
         style="fill:#7d7d7d;fill-opacity:1" />
    </g>
    <g
       style="fill:#7d7d7d"
       id="switch.doorbell"
       transform="matrix(28.300936,0,0,-28.300936,2779.3494,2269.836)"
       inkscape:label="switch.doorbell">
      <path
         id="path4854"
         d="m 7,9 v 6 h 4 l 5,5 V 4 l -5,5 z"
         inkscape:connector-curvature="0" />
      <path
         id="path4856"
         d="M 0,0 H 24 V 24 H 0 Z"
         inkscape:connector-curvature="0"
         style="fill:none" />
    </g>
  </g>
</svg>
